<?xml version="1.0" encoding="UTF-8"?>
<!DOCTYPE svg PUBLIC "-//W3C//DTD SVG 1.1//EN" "http://www.w3.org/Graphics/SVG/1.1/DTD/svg11.dtd">
<!-- Creator: CorelDRAW -->
<svg xmlns="http://www.w3.org/2000/svg" xml:space="preserve" width="33.8666mm" height="29.4602mm" version="1.1" style="shape-rendering:geometricPrecision; text-rendering:geometricPrecision; image-rendering:optimizeQuality; fill-rule:evenodd; clip-rule:evenodd"
viewBox="0 0 3386.66 2946.02"
 xmlns:xlink="http://www.w3.org/1999/xlink"
 xmlns:xodm="http://www.corel.com/coreldraw/odm/2003">
 <defs>
  <style type="text/css">
   <![CDATA[
    .fil1 {fill:#FEFEFE}
    .fil0 {fill:#4CAFE2}
   ]]>
  </style>
 </defs>
 <g id="Camada_x0020_1">
  <metadata id="CorelCorpID_0Corel-Layer"/>
  <g id="_1737795430752">
   <path class="fil0" d="M2482.14 2304.39c-80.19,370.54 -410.13,641.63 -796.65,641.63 -385.88,0 -715.53,-270.22 -796.33,-640.1 -24.56,2.23 -49.23,3.34 -73.92,3.34 -450.22,0 -815.23,-365.01 -815.23,-815.23 0,-450.21 365.01,-815.23 815.23,-815.23 22.03,0 44.05,0.89 65.99,2.66 64.09,-388.82 402.08,-681.46 804.26,-681.46 402.81,0 741.01,293.49 804.49,682.85 27.05,-2.7 54.23,-4.05 81.44,-4.05 450.22,0 815.23,365.02 815.23,815.23 0,450.22 -365.01,815.23 -815.23,815.23 -29.84,0 -59.65,-1.62 -89.28,-4.87zm-796.65 563.45c378.58,0 690.44,-285.45 732.23,-652.85 49.58,10.51 100.99,16.1 153.7,16.1 407.07,0 737.05,-329.99 737.05,-737.06 0,-407.06 -329.98,-737.05 -737.05,-737.05 -51.46,0 -101.67,5.32 -150.15,15.35 -22.23,-387.09 -343.12,-694.15 -735.78,-694.15 -391.64,0 -711.86,305.46 -735.59,691.12 -43.66,-8.06 -88.66,-12.32 -134.66,-12.32 -407.07,0 -737.05,329.99 -737.05,737.05 0,407.07 329.98,737.06 737.05,737.06 47.3,0 93.54,-4.52 138.36,-13.03 43.18,365.93 354.36,649.78 731.89,649.78z"/>
   <path class="fil1" d="M815.24 1824.68c182.61,0 330.65,-148.03 330.65,-330.65 0,-182.61 -148.04,-330.65 -330.65,-330.65 -182.61,0 -330.65,148.04 -330.65,330.65 0,182.62 148.04,330.65 330.65,330.65zm870.24 -678.8c182.62,0 330.66,-148.04 330.66,-330.65 0,-182.61 -148.04,-330.65 -330.66,-330.65 -182.61,0 -330.64,148.04 -330.64,330.65 0,182.61 148.03,330.65 330.64,330.65zm885.94 678.8c182.61,0 330.65,-148.03 330.65,-330.65 0,-182.61 -148.04,-330.65 -330.65,-330.65 -182.61,0 -330.65,148.04 -330.65,330.65 0,182.62 148.04,330.65 330.65,330.65zm-885.94 636.75c182.62,0 330.66,-148.03 330.66,-330.65 0,-182.61 -148.04,-330.65 -330.66,-330.65 -182.61,0 -330.64,148.04 -330.64,330.65 0,182.62 148.03,330.65 330.64,330.65zm-870.24 -714.93c139.46,0 252.47,-113.01 252.47,-252.47 0,-139.46 -113.01,-252.47 -252.47,-252.47 -139.46,0 -252.47,113.01 -252.47,252.47 0,139.46 113.01,252.47 252.47,252.47zm870.24 -678.8c139.47,0 252.48,-113.01 252.48,-252.47 0,-139.46 -113.01,-252.47 -252.48,-252.47 -139.45,0 -252.47,113.01 -252.47,252.47 0,139.46 113.01,252.47 252.47,252.47zm885.94 678.8c139.46,0 252.47,-113.01 252.47,-252.47 0,-139.46 -113.01,-252.47 -252.47,-252.47 -139.46,0 -252.47,113.01 -252.47,252.47 0,139.46 113.01,252.47 252.47,252.47zm-885.94 636.76c139.47,0 252.48,-113.02 252.48,-252.48 0,-139.46 -113.01,-252.47 -252.48,-252.47 -139.45,0 -252.47,113.01 -252.47,252.47 0,139.46 113.01,252.48 252.47,252.48z"/>
  </g>
 </g>
</svg>
