<?xml version="1.0" encoding="UTF-8"?>
<!DOCTYPE svg PUBLIC "-//W3C//DTD SVG 1.1//EN" "http://www.w3.org/Graphics/SVG/1.1/DTD/svg11.dtd">
<!-- Creator: CorelDRAW -->
<svg xmlns="http://www.w3.org/2000/svg" xml:space="preserve" width="59.5499mm" height="15.875mm" version="1.1" style="shape-rendering:geometricPrecision; text-rendering:geometricPrecision; image-rendering:optimizeQuality; fill-rule:evenodd; clip-rule:evenodd"
viewBox="0 0 5954.98 1587.5"
 xmlns:xlink="http://www.w3.org/1999/xlink"
 xmlns:xodm="http://www.corel.com/coreldraw/odm/2003">
 <defs>
  <style type="text/css">
   <![CDATA[
    .fil0 {fill:#FEFEFE}
    .fil6 {fill:#FEFEFE}
    .fil2 {fill:#DEDFDF}
    .fil7 {fill:#FEFEFE;fill-rule:nonzero}
    .fil5 {fill:url(#id0)}
    .fil4 {fill:url(#id1)}
    .fil3 {fill:url(#id2)}
    .fil1 {fill:url(#id3)}
   ]]>
  </style>
  <linearGradient id="id0" gradientUnits="userSpaceOnUse" x1="2434.31" y1="811.04" x2="2434.53" y2="811.04">
   <stop offset="0" style="stop-opacity:1; stop-color:#4CAFE2"/>
   <stop offset="0.501961" style="stop-opacity:1; stop-color:#80CBF1"/>
   <stop offset="1" style="stop-opacity:1; stop-color:#4CAFE2"/>
  </linearGradient>
  <linearGradient id="id1" gradientUnits="userSpaceOnUse" xlink:href="#id0" x1="499.5" y1="251.57" x2="1053.77" y2="827.11">
  </linearGradient>
  <linearGradient id="id2" gradientUnits="userSpaceOnUse" xlink:href="#id0" x1="499.5" y1="251.57" x2="1053.76" y2="827.11">
  </linearGradient>
  <linearGradient id="id3" gradientUnits="userSpaceOnUse" xlink:href="#id0" x1="499.5" y1="251.56" x2="1053.77" y2="827.11">
  </linearGradient>
 </defs>
 <g id="Camada_x0020_1">
  <metadata id="CorelCorpID_0Corel-Layer"/>
  <g id="_1701983091600">
   <g>
    <g>
     <path class="fil0" d="M2026.22 479.99c-187.21,0 -338.97,151.75 -338.97,338.96 0,187.21 151.76,338.96 338.97,338.96 2.87,0 5.74,-0.04 8.61,-0.11l0.28 0c2.81,-0.08 5.6,-0.18 8.38,-0.32l0.29 -0.02c2.81,-0.14 5.61,-0.32 8.4,-0.53l0.28 -0.02c2.73,-0.21 5.44,-0.45 8.15,-0.73l0.5 -0.05c2.7,-0.27 5.38,-0.58 8.06,-0.92l0.42 -0.05c2.61,-0.33 5.21,-0.7 7.8,-1.09l0.97 -0.15c2.46,-0.38 4.91,-0.79 7.35,-1.22l0.88 -0.15c2.52,-0.46 5.03,-0.94 7.52,-1.44l1.01 -0.21c2.37,-0.49 4.73,-1.01 7.08,-1.54l1.12 -0.26c2.3,-0.54 4.59,-1.1 6.86,-1.68l1.5 -0.38c2.22,-0.58 4.44,-1.18 6.64,-1.8l1.53 -0.44c2.09,-0.6 4.18,-1.22 6.26,-1.86l1.74 -0.54c2.03,-0.64 4.05,-1.29 6.06,-1.97l2.09 -0.7c1.94,-0.67 3.88,-1.35 5.81,-2.05l1.83 -0.67c1.89,-0.7 3.77,-1.41 5.64,-2.14 0.85,-0.33 1.7,-0.67 2.55,-1.01 1.71,-0.68 3.42,-1.38 5.11,-2.09l2.41 -1.02c1.72,-0.73 3.44,-1.49 5.15,-2.25l2.51 -1.14c1.61,-0.73 3.21,-1.48 4.81,-2.24 0.89,-0.43 1.79,-0.86 2.68,-1.29l0.32 -0.16 0.2 -1.08c-12.48,71.43 -74.79,125.73 -149.79,125.73 -19.27,0 -37.71,-3.6 -54.68,-10.14l-99.55 160c46.26,23.68 98.69,37.04 154.23,37.04 248.32,-23.05 340.16,-171.3 341.23,-407.88 0.3,-67.82 -0.59,-137.63 -0.84,-205.91 -0.73,-192.44 -147.75,-336.24 -339.4,-341.44zm337.65 630.96c0.08,-1.97 0.08,-2.02 0,0zm-0.47 8.49c0.12,-1.89 0.13,-1.91 0,0zm-0.69 8.54c0.17,-1.8 0.17,-1.83 0,0zm-0.89 8.49c0.2,-1.71 0.2,-1.74 0,0zm-335.6 -469.58c-83.99,0 -152.07,68.08 -152.07,152.06 0,83.98 68.08,152.06 152.07,152.06 83.98,0 152.06,-68.08 152.06,-152.06 0,-83.98 -68.08,-152.06 -152.06,-152.06z"/>
     <path class="fil1" d="M1475.42 901.59c6.63,-26.45 10.16,-54.13 10.16,-82.64 0,-35.56 -5.49,-69.84 -15.65,-102.05 27.82,-30.71 68.03,-50.01 112.74,-50.01 47.77,0 90.39,22.03 118.27,56.49 18.54,-63.21 54.99,-118.77 103.5,-160.78 -59.44,-51.47 -136.97,-82.61 -221.77,-82.61 -83.04,0 -159.1,29.86 -218.04,79.43 -58.93,-49.56 -134.98,-79.43 -218.02,-79.43 -21.74,0 -43.01,2.07 -63.62,5.98 0.03,1.76 0.04,3.52 0.04,5.28 0,94.95 -38.48,180.91 -100.71,243.13 -23.42,23.43 -50.21,43.48 -79.58,59.39 40.92,22.17 76.83,52.4 105.61,88.55 -8.85,-19.29 -13.8,-40.75 -13.8,-63.37 0,-83.98 68.08,-152.06 152.06,-152.06 45.82,0 86.91,20.26 114.79,52.32l0.37 0.43c0.72,0.83 1.43,1.68 2.14,2.53l0.14 0.18c0.71,0.86 1.42,1.73 2.11,2.62l0.21 0.27c0.66,0.84 1.31,1.69 1.95,2.54l0.33 0.43c0.62,0.84 1.23,1.68 1.83,2.53l0.27 0.37c0.61,0.86 1.21,1.72 1.8,2.6l0.26 0.38c0.62,0.92 1.23,1.84 1.83,2.77l0.12 0.19c0.61,0.96 1.21,1.92 1.8,2.89l0.1 0.16 0.04 0.07c0.6,0.98 1.18,1.96 1.75,2.96l0.08 0.13 0.08 0.14c0.56,0.98 1.11,1.96 1.65,2.95l0.17 0.33c0.51,0.94 1.02,1.89 1.51,2.85l0.22 0.43c0.49,0.96 0.97,1.92 1.43,2.89l0.17 0.35c0.47,0.97 0.92,1.95 1.37,2.92l0.2 0.44c0.47,1.04 0.93,2.09 1.37,3.15l0.04 0.08c0.47,1.11 0.93,2.23 1.37,3.36l0.03 0.06c0.43,1.11 0.86,2.23 1.27,3.36l0.04 0.1 0.03 0.09c0.4,1.1 0.79,2.21 1.17,3.32l0.1 0.28c0.36,1.07 0.71,2.15 1.05,3.24l0.09 0.31c0.34,1.07 0.66,2.14 0.96,3.22l0.12 0.4c0.29,1.06 0.58,2.13 0.86,3.19l0.1 0.41c0.29,1.1 0.56,2.2 0.81,3.31l0.06 0.26c0.56,2.41 1.05,4.83 1.49,7.28l0.01 0.05c0.22,1.24 0.43,2.48 0.62,3.73l0.01 0.09c0.19,1.22 0.36,2.44 0.51,3.66l0.03 0.17c0.15,1.2 0.29,2.41 0.41,3.62l0.02 0.21c0.12,1.21 0.23,2.42 0.32,3.63l0.02 0.21c0.09,1.22 0.17,2.46 0.23,3.69l0.01 0.14c0.06,1.26 0.11,2.52 0.15,3.79l0 0.08c0.03,1.29 0.05,2.59 0.05,3.9l-0.01 1.43 0 0 -0.02 1.42 0 0 -0.03 1.42 0 0 -0.05 1.42 0 0 -0.06 1.41 0 0 -0.07 1.41 0 0 -0.08 1.41 0 0 -0.1 1.4 0 0 -0.11 1.4 0 0 -0.12 1.4 0 0 -0.13 1.39 -0.01 0c-0.09,0.93 -0.19,1.85 -0.3,2.78l0 0 -0.17 1.38 -0.01 0 -0.18 1.38 0 0 -0.19 1.37 -0.01 0 -0.2 1.37 -0.01 0c-0.14,0.91 -0.29,1.82 -0.45,2.73l0 0 -0.24 1.35 -0.01 0 -0.25 1.36 0 0 -0.27 1.35 0 0 -0.28 1.34 0 0 -0.29 1.34 0 0 -0.31 1.34 0 0 -0.32 1.33 0 0c-0.21,0.89 -0.43,1.77 -0.66,2.65l0 0 -0.35 1.32 -0.01 0c-0.23,0.87 -0.48,1.75 -0.73,2.62l-0.39 1.3 -0.39 1.3c-0.27,0.86 -0.55,1.72 -0.83,2.58l-0.43 1.28 0 0.01 -0.44 1.27 0 0c-0.45,1.28 -0.91,2.55 -1.39,3.81l-0.49 1.25 0 0.01 -0.49 1.24 0 0.01 -0.51 1.24 0 0c-0.34,0.83 -0.69,1.66 -1.04,2.48l0 0 -0.54 1.23 0 0 -0.55 1.22 0 0 -0.56 1.22 0 0 -0.57 1.21 0 0 -0.58 1.21 0 0 -0.59 1.2 0 0 -0.6 1.19 0 0.01 -0.61 1.18 0 0 -0.62 1.19 0 0 -0.64 1.17 0 0 -0.64 1.17 0 0 -0.65 1.17 0 0 -0.66 1.15 0 0.01 -0.67 1.15 0 0 -0.68 1.14 0 0 -0.69 1.14 0 0 -0.7 1.13 0 0 -0.71 1.13 0 0 -0.72 1.11 0 0.01 0.01 0 180.73 0 20.41 0zm-667.47 -68.4c2.33,56.18 18.33,108.82 44.77,154.7 7.85,8.22 14.81,17.3 20.74,27.07 35.5,-48.23 83.46,-86.71 139.13,-110.7 -29.81,-42.38 -69.23,-77.5 -115.07,-102.22 -23.71,12.1 -49.03,21.58 -75.56,28.04 -4.64,1.13 -9.31,2.16 -14.01,3.11zm265.29 -345.2c-133.17,29.39 -236.91,137.08 -260.5,272.32 1.11,0.25 2.23,0.49 3.34,0.75 25.45,5.82 49.84,14.47 72.79,25.59l3.36 1.63c30.83,-15.92 58.88,-36.5 83.18,-60.8 60.45,-60.46 97.85,-143.98 97.85,-236.23 0,-1.09 -0.01,-2.17 -0.02,-3.26zm-262.06 281.97c-2.06,14.18 -3.22,28.65 -3.46,43.34 2.09,-0.44 4.18,-0.91 6.26,-1.39 21.3,-4.95 41.81,-11.97 61.31,-20.83 -19.55,-8.73 -40.08,-15.64 -61.39,-20.51 -0.9,-0.21 -1.81,-0.42 -2.72,-0.61z"/>
     <path class="fil2" d="M739.18 1435.22c187.21,0 338.97,-151.76 338.97,-338.96 0,-129.99 -73.19,-242.87 -180.59,-299.73 -47.4,24.64 -101.26,38.57 -158.38,38.57 -9.76,0 -19.46,-0.42 -29.07,-1.22 -9.52,-0.8 -18.97,-2 -28.33,-3.58 -5.01,64.81 -28,124.59 -63.97,174.35 27.76,-36.72 71.79,-60.46 121.37,-60.46 83.98,0 152.07,68.08 152.07,152.06 0,83.99 -68.09,152.07 -152.07,152.07 -83.98,0 -152.06,-68.08 -152.06,-152.07 0,-32.7 10.33,-63 27.9,-87.8 -10.04,13.5 -21.04,26.24 -32.92,38.11 -47.83,47.84 -109.7,81.64 -178.9,94.72 22.02,165.92 164.04,293.94 335.98,293.94zm147.57 -644.18c-44.61,-21.61 -94.67,-33.75 -147.57,-33.75 -18.37,0 -36.39,1.47 -53.97,4.29 1.65,13.72 2.49,27.68 2.49,41.84 0,3.36 -0.06,7.09 -0.19,11.18 -0.07,2.29 -0.16,4.53 -0.27,6.71 7.77,1.21 15.67,2.16 23.67,2.83 9.29,0.78 18.72,1.18 28.27,1.18 52.98,0 103.07,-12.33 147.57,-34.28zm-220.78 -25.78c-26.02,5.73 -50.92,14.43 -74.32,25.76 23.93,11.8 49.47,20.81 76.21,26.63l0.16 -4.24c0.09,-2.92 0.13,-6.24 0.13,-9.99 0,-12.91 -0.74,-25.64 -2.18,-38.16zm-85.12 31.25c-45.13,23.88 -84.22,57.66 -114.38,98.44 -0.49,0.68 -0.98,1.35 -1.48,2.02 -40.73,55.93 -64.77,124.8 -64.77,199.29 0,11.91 0.64,23.69 1.84,35.29 66.96,-12.8 126.82,-45.58 173.14,-91.9 54.92,-54.92 90.8,-128.88 96.91,-211.14l-0.63 -0.12c-32.04,-6.4 -62.47,-17.25 -90.63,-31.88z"/>
     <path class="fil3" d="M739.18 830.21c187.21,0 338.97,-151.76 338.97,-338.96 0,-187.21 -151.76,-338.97 -338.97,-338.97 -178.43,0 -324.63,137.89 -337.94,312.92 69.99,12.81 132.58,46.79 180.86,95.08 62.23,62.23 100.72,148.19 100.72,243.14 0,7.39 -0.24,14.72 -0.7,22 18.55,3.14 37.62,4.79 57.06,4.79zm-338.57 -355.18c-0.25,5.37 -0.39,10.78 -0.39,16.22 0,164.35 116.98,301.34 272.22,332.35 0.39,-6.68 0.6,-13.4 0.6,-20.18 0,-92.25 -37.39,-175.77 -97.84,-236.23 -46.66,-46.65 -107.05,-79.56 -174.59,-92.16zm338.57 168.28c83.98,0 152.07,-68.08 152.07,-152.06 0,-83.99 -68.09,-152.07 -152.07,-152.07 -83.98,0 -152.06,68.08 -152.06,152.07 0,83.98 68.08,152.06 152.06,152.06z"/>
     <path class="fil4" d="M185.81 258.49l-184.69 0 0 517.37c-0.07,0.96 -0.15,1.93 -0.22,2.89 -0.14,2.07 -0.27,4.14 -0.39,6.21l-0.1 1.88c-0.12,2.5 -0.21,5.01 -0.28,7.52l-0.02 0.56c-0.07,2.83 -0.11,5.66 -0.11,8.5 0,187.21 151.76,338.96 338.97,338.96 187.2,0 338.96,-151.75 338.96,-338.96 0,-187.2 -151.76,-338.96 -338.96,-338.96 -2.88,0 -5.75,0.04 -8.62,0.11l-0.28 0.01c-2.8,0.07 -5.6,0.17 -8.38,0.31l-0.28 0.02c-2.82,0.14 -5.62,0.32 -8.41,0.53l-0.28 0.02c-2.72,0.21 -5.44,0.45 -8.14,0.73l-0.51 0.05c-2.7,0.27 -5.38,0.58 -8.06,0.92l-0.42 0.05c-2.61,0.33 -5.21,0.7 -7.8,1.09l-0.96 0.15c-2.46,0.38 -4.92,0.79 -7.36,1.22l-0.88 0.16c-2.52,0.45 -5.03,0.93 -7.52,1.44l-1.01 0.21c-2.37,0.48 -4.73,1 -7.07,1.53l-1.13 0.26c-2.3,0.54 -4.58,1.1 -6.86,1.68l-1.5 0.38c-2.22,0.58 -4.44,1.18 -6.64,1.8l-1.53 0.44c-2.09,0.6 -4.18,1.22 -6.26,1.86l-1.74 0.54c-2.03,0.64 -4.05,1.29 -6.06,1.97l-2.08 0.7c-1.95,0.67 -3.89,1.35 -5.82,2.05l-1.83 0.67c-1.89,0.7 -3.77,1.41 -5.64,2.14 -0.85,0.34 -1.7,0.67 -2.55,1.01 -1.71,0.68 -3.41,1.38 -5.11,2.09l-2.41 1.02c-1.72,0.74 -3.44,1.49 -5.14,2.25l-2.52 1.14c-1.61,0.73 -3.21,1.48 -4.81,2.24 -0.89,0.43 -1.79,0.86 -2.68,1.29 -1.59,0.78 -3.18,1.57 -4.76,2.37l-0.11 0.06 0 -242.48zm153.16 696.99c83.98,0 152.06,-68.08 152.06,-152.06 0,-83.98 -68.08,-152.06 -152.06,-152.06 -83.99,0 -152.07,68.08 -152.07,152.06 0,83.98 68.08,152.06 152.07,152.06z"/>
     <path class="fil5" d="M2434.62 807.96c-0.12,3.65 -0.2,7.31 -0.2,10.99 0,3.86 0.07,7.7 0.2,11.53l0 -22.52z"/>
     <path class="fil0" d="M3084.08 819.22l0 -0.27c-8.5,-196.82 -143.01,-328.98 -338.96,-338.96 -206.02,5.63 -340.46,157.51 -339.04,360.62 0.66,93.93 0.28,247.94 0.28,341.89l186.7 0c0,-94.98 -1.02,-250.73 -0.4,-345.56 0.44,-67.67 22.14,-123.93 86.37,-154.98 21.99,-10.63 41.82,-14.48 66.09,-15.07 45.82,0 86.91,20.26 114.79,52.32l0.36 0.43c0.73,0.83 1.44,1.68 2.14,2.53l0.15 0.18c0.71,0.86 1.41,1.73 2.11,2.62l0.21 0.27c0.66,0.84 1.31,1.69 1.95,2.54l0.32 0.43c0.62,0.84 1.24,1.68 1.84,2.53l0.27 0.37c0.61,0.86 1.21,1.72 1.8,2.6l0.26 0.38c0.61,0.92 1.22,1.84 1.82,2.77l0.13 0.19c0.61,0.96 1.21,1.92 1.8,2.89l0.1 0.16 0.04 0.07c0.59,0.98 1.18,1.96 1.75,2.96l0.08 0.13 0.08 0.14c0.56,0.98 1.11,1.96 1.64,2.95l0.18 0.33c0.51,0.94 1.01,1.89 1.5,2.85l0.23 0.43c0.48,0.96 0.96,1.92 1.43,2.89l0.17 0.35c0.47,0.97 0.92,1.95 1.37,2.92l0.19 0.44c0.47,1.04 0.93,2.09 1.38,3.15l0.04 0.08c0.47,1.11 0.92,2.23 1.37,3.36l0.02 0.06c0.44,1.11 0.87,2.23 1.28,3.36l0.04 0.1 0.03 0.09c0.4,1.1 0.79,2.21 1.17,3.32l0.09 0.28c0.37,1.07 0.72,2.15 1.05,3.24l0.1 0.31c0.33,1.07 0.65,2.14 0.96,3.22l0.11 0.4c0.3,1.06 0.59,2.13 0.87,3.19l0.1 0.41c0.28,1.1 0.55,2.2 0.81,3.31l0.06 0.26c0.55,2.41 1.05,4.83 1.49,7.28l0.01 0.05c0.22,1.24 0.42,2.48 0.62,3.73l0.01 0.09c0.18,1.22 0.35,2.44 0.51,3.66l0.02 0.17c0.15,1.2 0.29,2.41 0.42,3.62l0.02 0.21c0.12,1.21 0.23,2.42 0.32,3.63l0.02 0.21c0.09,1.22 0.17,2.46 0.23,3.69l0.01 0.14c0.06,1.26 0.11,2.52 0.14,3.79l0 0.08c0.04,1.29 0.05,2.59 0.05,3.9l0 0.27 186.9 0z"/>
     <path class="fil0" d="M3462.6 479.99c-189.44,-2.6 -338.96,151.75 -338.96,338.96 0,187.21 151.76,338.96 338.96,338.96 2.88,0 5.75,-0.04 8.62,-0.11l0.28 0c2.8,-0.08 5.6,-0.18 8.38,-0.32l0.28 -0.02c2.82,-0.14 5.62,-0.32 8.41,-0.53l0.28 -0.02c2.72,-0.21 5.44,-0.45 8.14,-0.73l0.51 -0.05c2.7,-0.27 5.38,-0.58 8.06,-0.92l0.42 -0.05c2.61,-0.33 5.21,-0.7 7.8,-1.09l0.96 -0.15c2.46,-0.38 4.92,-0.79 7.36,-1.22l0.88 -0.15c2.52,-0.46 5.03,-0.94 7.52,-1.44l1.01 -0.21c2.37,-0.49 4.73,-1.01 7.08,-1.54l1.12 -0.26c2.3,-0.54 4.58,-1.1 6.86,-1.68l1.5 -0.38c2.22,-0.58 4.44,-1.18 6.64,-1.8l1.53 -0.44c2.09,-0.6 4.18,-1.22 6.26,-1.86l1.74 -0.54c2.03,-0.64 4.05,-1.29 6.06,-1.97l2.09 -0.7c1.94,-0.67 3.88,-1.35 5.81,-2.05l1.83 -0.67c1.89,-0.7 3.77,-1.41 5.64,-2.14 0.85,-0.33 1.7,-0.67 2.55,-1.01 1.71,-0.68 3.41,-1.38 5.11,-2.09l2.41 -1.02c1.72,-0.73 3.44,-1.49 5.14,-2.25l9.26 -5.03 2.28 59.03 189.58 0 0 -361.07c0,-192.43 -149.95,-338.84 -339.4,-341.44zm0 186.9c-83.98,0 -152.06,68.08 -152.06,152.06 0,83.98 68.08,152.06 152.06,152.06 83.99,0 152.07,-68.08 152.07,-152.06 0,-83.98 -68.08,-152.06 -152.07,-152.06z"/>
     <path class="fil0" d="M4519.58 597.12l0 -0.27c0,-197 -137.83,-336.79 -338.96,-338.96 -201.14,-2.17 -340.47,157.52 -339.05,360.62 0.66,93.93 0.28,470.04 0.28,563.99l186.7 0c0,-32.93 -0.12,-99.9 -0.25,-177.27l178.97 0 0 -186.31 -179.25 0c-0.1,-88.52 -0.1,-167.44 0.13,-204.08 0.44,-67.67 22.14,-123.93 86.37,-154.97 22,-10.64 31.05,-14.78 66.1,-15.08 35.04,-0.3 86.9,20.27 114.78,52.32l0.37 0.43c0.72,0.84 1.44,1.68 2.14,2.53l0.14 0.18c0.72,0.86 1.42,1.74 2.11,2.62l0.22 0.27c0.66,0.84 1.3,1.69 1.95,2.55l0.32 0.43c0.62,0.83 1.23,1.67 1.84,2.52l0.26 0.37c0.61,0.86 1.21,1.73 1.8,2.6l0.26 0.38c0.62,0.92 1.23,1.84 1.83,2.77l0.12 0.2c0.61,0.95 1.21,1.91 1.8,2.88l0.1 0.16 0.05 0.07c0.59,0.98 1.17,1.97 1.74,2.96l0.08 0.13 0.08 0.14c0.56,0.98 1.11,1.96 1.65,2.95l0.17 0.33c0.52,0.94 1.02,1.89 1.51,2.85l0.22 0.43c0.49,0.96 0.97,1.92 1.43,2.89l0.18 0.36c0.46,0.96 0.92,1.94 1.36,2.92l0.2 0.43c0.47,1.04 0.93,2.09 1.37,3.15l0.04 0.08c0.47,1.12 0.93,2.24 1.37,3.36l0.03 0.06c0.44,1.11 0.86,2.23 1.27,3.36l0.04 0.1 0.03 0.09c0.41,1.1 0.8,2.21 1.18,3.33l0.09 0.27c0.36,1.08 0.71,2.16 1.05,3.24l0.1 0.31c0.33,1.07 0.65,2.15 0.96,3.23l0.11 0.4c0.3,1.05 0.58,2.12 0.86,3.19l0.11 0.4c0.28,1.1 0.55,2.21 0.8,3.32l0.06 0.25c0.56,2.41 1.06,4.83 1.49,7.28l0.01 0.05c0.22,1.24 0.43,2.48 0.62,3.73l0.01 0.1c0.19,1.21 0.36,2.43 0.52,3.66l0.02 0.16c0.15,1.2 0.29,2.41 0.41,3.62l0.02 0.21c0.12,1.21 0.23,2.42 0.32,3.63l0.02 0.21c0.09,1.23 0.17,2.46 0.23,3.69l0.01 0.14c0.07,1.26 0.12,2.53 0.15,3.8l0 0.07c0.03,1.29 0.05,2.6 0.05,3.9l0 0.27 186.9 0z"/>
     <path class="fil0" d="M4332.65 757.31c0.09,153.89 -0.08,358.25 -0.08,425.19l186.7 0c0,-67.27 -0.47,-270.71 -0.58,-425.19l-186.04 0z"/>
     <path class="fil6" d="M4898.1 1182.5c165.51,0 303.28,-118.62 333,-275.48l-194.79 0c-24.05,52.28 -76.89,88.58 -138.21,88.58 -83.98,0 -152.06,-68.08 -152.06,-152.06 0,-83.98 68.08,-152.06 152.06,-152.06 61.32,0 114.16,36.3 138.21,88.58l194.79 0c-29.72,-156.86 -167.49,-275.48 -333,-275.48 -187.21,0 -338.96,151.75 -338.96,338.96 0,187.2 151.75,338.96 338.96,338.96z"/>
     <path class="fil6" d="M5616.02 1182.5c187.2,0 338.96,-151.76 338.96,-338.96 0,-187.21 -151.76,-338.96 -338.96,-338.96 -187.21,0 -338.96,151.75 -338.96,338.96 0,187.2 151.75,338.96 338.96,338.96zm0 -186.9c83.98,0 152.06,-68.08 152.06,-152.06 0,-83.98 -68.08,-152.06 -152.06,-152.06 -83.98,0 -152.06,68.08 -152.06,152.06 0,83.98 68.08,152.06 152.06,152.06z"/>
    </g>
    <path class="fil7" d="M2436.76 1311.85l0 41.26 48.54 0 0 18.8 -48.54 0 0 43.08 54.61 0 0 18.81 -77.66 0 0 -140.76 77.66 0 0 18.81 -54.61 0zm129.24 123.37c-9.44,0 -17.94,-1.66 -25.49,-4.96 -7.55,-3.3 -13.48,-7.99 -17.79,-14.05 -4.32,-6.07 -6.48,-13.15 -6.48,-21.24l24.68 0c0.54,6.07 2.93,11.06 7.18,14.97 4.24,3.91 10.21,5.86 17.9,5.86 7.95,0 14.15,-1.92 18.6,-5.76 4.45,-3.84 6.67,-8.8 6.67,-14.87 0,-4.72 -1.38,-8.56 -4.14,-11.52 -2.77,-2.97 -6.2,-5.26 -10.31,-6.88 -4.12,-1.62 -9.81,-3.37 -17.1,-5.26 -9.16,-2.42 -16.61,-4.89 -22.34,-7.38 -5.73,-2.5 -10.62,-6.37 -14.66,-11.63 -4.05,-5.26 -6.07,-12.27 -6.07,-21.03 0,-8.09 2.02,-15.17 6.07,-21.24 4.04,-6.07 9.7,-10.72 16.99,-13.95 7.28,-3.24 15.7,-4.86 25.27,-4.86 13.62,0 24.78,3.41 33.48,10.22 8.69,6.81 13.51,16.14 14.46,28.01l-25.49 0c-0.4,-5.13 -2.83,-9.51 -7.28,-13.15 -4.45,-3.64 -10.31,-5.46 -17.59,-5.46 -6.61,0 -12,1.69 -16.18,5.06 -4.18,3.37 -6.27,8.22 -6.27,14.56 0,4.31 1.31,7.85 3.94,10.61 2.63,2.77 5.97,4.96 10.01,6.58 4.05,1.62 9.57,3.37 16.59,5.26 9.3,2.56 16.88,5.12 22.75,7.68 5.86,2.56 10.85,6.51 14.97,11.83 4.11,5.33 6.16,12.44 6.16,21.34 0,7.15 -1.92,13.89 -5.76,20.22 -3.84,6.34 -9.44,11.43 -16.79,15.27 -7.34,3.85 -16.01,5.77 -25.98,5.77zm174.12 -100.11c0,7.14 -1.68,13.88 -5.05,20.22 -3.37,6.34 -8.77,11.5 -16.18,15.47 -7.42,3.98 -16.92,5.97 -28.52,5.97l-25.48 0 0 57.03 -23.05 0 0 -140.56 48.53 0c10.79,0 19.92,1.86 27.41,5.57 7.48,3.7 13.08,8.73 16.78,15.06 3.71,6.34 5.56,13.42 5.56,21.24zm-49.75 22.85c8.77,0 15.31,-1.99 19.62,-5.97 4.32,-3.97 6.47,-9.6 6.47,-16.88 0,-15.37 -8.69,-23.06 -26.09,-23.06l-25.48 0 0 45.91 25.48 0zm94.85 -46.11l0 41.26 48.54 0 0 18.8 -48.54 0 0 43.08 54.61 0 0 18.81 -77.66 0 0 -140.76 77.66 0 0 18.81 -54.61 0zm75.24 51.37c0,-13.75 3.2,-26.09 9.61,-37.01 6.4,-10.92 15.1,-19.45 26.09,-25.58 10.98,-6.14 23.02,-9.21 36.09,-9.21 14.97,0 28.29,3.68 39.95,11.02 11.66,7.35 20.12,17.77 25.38,31.25l-27.71 0c-3.64,-7.41 -8.69,-12.94 -15.17,-16.58 -6.47,-3.64 -13.95,-5.46 -22.45,-5.46 -9.3,0 -17.59,2.09 -24.87,6.27 -7.28,4.18 -12.98,10.18 -17.09,18 -4.11,7.82 -6.17,16.92 -6.17,27.3 0,10.38 2.06,19.48 6.17,27.3 4.11,7.82 9.81,13.86 17.09,18.1 7.28,4.25 15.57,6.37 24.87,6.37 8.5,0 15.98,-1.82 22.45,-5.46 6.48,-3.64 11.53,-9.17 15.17,-16.58l27.71 0c-5.26,13.48 -13.72,23.86 -25.38,31.14 -11.66,7.28 -24.98,10.93 -39.95,10.93 -13.21,0 -25.27,-3.07 -36.2,-9.21 -10.92,-6.13 -19.58,-14.66 -25.98,-25.58 -6.41,-10.92 -9.61,-23.26 -9.61,-37.01zm187.07 -69.98l0 140.56 -23.05 0 0 -140.56 23.05 0zm115.08 111.84l-58.85 0 -10.12 28.72 -24.06 0 50.36 -140.76 26.69 0 50.36 140.76 -24.27 0 -10.11 -28.72zm-6.47 -18.8l-22.86 -65.33 -23.05 65.33 45.91 0zm85.74 28.92l47.53 0 0 18.6 -70.58 0 0 -140.56 23.05 0 0 121.96zm89.8 -121.96l0 140.56 -23.05 0 0 -140.56 23.05 0zm76.65 141.98c-9.44,0 -17.93,-1.66 -25.48,-4.96 -7.55,-3.3 -13.49,-7.99 -17.8,-14.05 -4.31,-6.07 -6.47,-13.15 -6.47,-21.24l24.67 0c0.54,6.07 2.93,11.06 7.18,14.97 4.25,3.91 10.21,5.86 17.9,5.86 7.95,0 14.16,-1.92 18.6,-5.76 4.45,-3.84 6.68,-8.8 6.68,-14.87 0,-4.72 -1.38,-8.56 -4.15,-11.52 -2.76,-2.97 -6.2,-5.26 -10.31,-6.88 -4.11,-1.62 -9.81,-3.37 -17.09,-5.26 -9.17,-2.42 -16.62,-4.89 -22.35,-7.38 -5.73,-2.5 -10.62,-6.37 -14.66,-11.63 -4.05,-5.26 -6.07,-12.27 -6.07,-21.03 0,-8.09 2.02,-15.17 6.07,-21.24 4.04,-6.07 9.71,-10.72 16.99,-13.95 7.28,-3.24 15.7,-4.86 25.28,-4.86 13.61,0 24.77,3.41 33.47,10.22 8.69,6.81 13.52,16.14 14.46,28.01l-25.48 0c-0.41,-5.13 -2.84,-9.51 -7.28,-13.15 -4.45,-3.64 -10.32,-5.46 -17.6,-5.46 -6.6,0 -12,1.69 -16.18,5.06 -4.18,3.37 -6.27,8.22 -6.27,14.56 0,4.31 1.32,7.85 3.95,10.61 2.62,2.77 5.96,4.96 10.01,6.58 4.04,1.62 9.57,3.37 16.58,5.26 9.3,2.56 16.89,5.12 22.75,7.68 5.87,2.56 10.86,6.51 14.97,11.83 4.11,5.33 6.17,12.44 6.17,21.34 0,7.15 -1.92,13.89 -5.77,20.22 -3.84,6.34 -9.44,11.43 -16.78,15.27 -7.35,3.85 -16.01,5.77 -25.99,5.77zm166.65 -141.98l0 18.81 -37.42 0 0 121.75 -23.06 0 0 -121.75 -37.61 0 0 -18.81 98.09 0zm107.99 111.84l-58.85 0 -10.11 28.72 -24.07 0 50.36 -140.76 26.7 0 50.35 140.76 -24.27 0 -10.11 -28.72zm-6.47 -18.8l-22.85 -65.33 -23.06 65.33 45.91 0zm109.01 48.94c-9.44,0 -17.93,-1.66 -25.49,-4.96 -7.54,-3.3 -13.48,-7.99 -17.79,-14.05 -4.32,-6.07 -6.47,-13.15 -6.47,-21.24l24.67 0c0.54,6.07 2.93,11.06 7.18,14.97 4.25,3.91 10.21,5.86 17.9,5.86 7.95,0 14.15,-1.92 18.6,-5.76 4.45,-3.84 6.68,-8.8 6.68,-14.87 0,-4.72 -1.38,-8.56 -4.15,-11.52 -2.76,-2.97 -6.2,-5.26 -10.31,-6.88 -4.11,-1.62 -9.81,-3.37 -17.09,-5.26 -9.17,-2.42 -16.62,-4.89 -22.35,-7.38 -5.73,-2.5 -10.62,-6.37 -14.66,-11.63 -4.05,-5.26 -6.07,-12.27 -6.07,-21.03 0,-8.09 2.02,-15.17 6.07,-21.24 4.04,-6.07 9.71,-10.72 16.99,-13.95 7.28,-3.24 15.7,-4.86 25.28,-4.86 13.61,0 24.77,3.41 33.47,10.22 8.69,6.81 13.51,16.14 14.46,28.01l-25.49 0c-0.4,-5.13 -2.83,-9.51 -7.28,-13.15 -4.44,-3.64 -10.31,-5.46 -17.59,-5.46 -6.61,0 -12,1.69 -16.18,5.06 -4.18,3.37 -6.27,8.22 -6.27,14.56 0,4.31 1.31,7.85 3.94,10.61 2.63,2.77 5.97,4.96 10.02,6.58 4.04,1.62 9.57,3.37 16.58,5.26 9.3,2.56 16.88,5.12 22.75,7.68 5.87,2.56 10.85,6.51 14.97,11.83 4.11,5.33 6.17,12.44 6.17,21.34 0,7.15 -1.93,13.89 -5.77,20.22 -3.84,6.34 -9.44,11.43 -16.78,15.27 -7.35,3.85 -16.02,5.77 -25.99,5.77zm151.47 -123.37l0 41.26 48.54 0 0 18.8 -48.54 0 0 43.08 54.61 0 0 18.81 -77.66 0 0 -140.76 77.66 0 0 18.81 -54.61 0zm230.96 -18.61l0 140.56 -23.05 0 0 -96.26 -42.88 96.26 -15.97 0 -43.08 -96.26 0 96.26 -23.05 0 0 -140.56 24.87 0 49.35 110.22 49.14 -110.22 24.67 0zm181.21 41.87c0,7.14 -1.69,13.88 -5.05,20.22 -3.37,6.34 -8.77,11.5 -16.18,15.47 -7.42,3.98 -16.92,5.97 -28.52,5.97l-25.48 0 0 57.03 -23.06 0 0 -140.56 48.54 0c10.79,0 19.92,1.86 27.4,5.57 7.49,3.7 13.08,8.73 16.79,15.06 3.71,6.34 5.56,13.42 5.56,21.24zm-49.75 22.85c8.76,0 15.3,-1.99 19.62,-5.97 4.31,-3.97 6.47,-9.6 6.47,-16.88 0,-15.37 -8.7,-23.06 -26.09,-23.06l-25.48 0 0 45.91 25.48 0zm94.85 57.24l47.53 0 0 18.6 -70.58 0 0 -140.56 23.05 0 0 121.96zm151.48 -10.12l-58.85 0 -10.11 28.72 -24.07 0 50.36 -140.76 26.69 0 50.36 140.76 -24.27 0 -10.11 -28.72zm-6.47 -18.8l-22.86 -65.33 -23.05 65.33 45.91 0zm55.01 -23.06c0,-13.75 3.2,-26.09 9.6,-37.01 6.41,-10.92 15.11,-19.45 26.09,-25.58 10.99,-6.14 23.02,-9.21 36.1,-9.21 14.97,0 28.28,3.68 39.95,11.02 11.66,7.35 20.12,17.77 25.38,31.25l-27.71 0c-3.64,-7.41 -8.7,-12.94 -15.17,-16.58 -6.47,-3.64 -13.95,-5.46 -22.45,-5.46 -9.3,0 -17.59,2.09 -24.87,6.27 -7.28,4.18 -12.98,10.18 -17.09,18 -4.12,7.82 -6.17,16.92 -6.17,27.3 0,10.38 2.05,19.48 6.17,27.3 4.11,7.82 9.81,13.86 17.09,18.1 7.28,4.25 15.57,6.37 24.87,6.37 8.5,0 15.98,-1.82 22.45,-5.46 6.47,-3.64 11.53,-9.17 15.17,-16.58l27.71 0c-5.26,13.48 -13.72,23.86 -25.38,31.14 -11.67,7.28 -24.98,10.93 -39.95,10.93 -13.21,0 -25.28,-3.07 -36.2,-9.21 -10.92,-6.13 -19.58,-14.66 -25.99,-25.58 -6.4,-10.92 -9.6,-23.26 -9.6,-37.01zm248.75 41.86l-58.85 0 -10.11 28.72 -24.07 0 50.36 -140.76 26.7 0 50.35 140.76 -24.26 0 -10.12 -28.72zm-6.47 -18.8l-22.85 -65.33 -23.06 65.33 45.91 0zm109.01 48.94c-9.44,0 -17.93,-1.66 -25.48,-4.96 -7.55,-3.3 -13.49,-7.99 -17.8,-14.05 -4.31,-6.07 -6.47,-13.15 -6.47,-21.24l24.67 0c0.54,6.07 2.93,11.06 7.18,14.97 4.25,3.91 10.21,5.86 17.9,5.86 7.95,0 14.16,-1.92 18.6,-5.76 4.45,-3.84 6.68,-8.8 6.68,-14.87 0,-4.72 -1.38,-8.56 -4.15,-11.52 -2.76,-2.97 -6.2,-5.26 -10.31,-6.88 -4.11,-1.62 -9.81,-3.37 -17.09,-5.26 -9.17,-2.42 -16.62,-4.89 -22.35,-7.38 -5.73,-2.5 -10.62,-6.37 -14.66,-11.63 -4.05,-5.26 -6.07,-12.27 -6.07,-21.03 0,-8.09 2.02,-15.17 6.07,-21.24 4.04,-6.07 9.71,-10.72 16.99,-13.95 7.28,-3.24 15.7,-4.86 25.28,-4.86 13.61,0 24.77,3.41 33.47,10.22 8.69,6.81 13.52,16.14 14.46,28.01l-25.48 0c-0.41,-5.13 -2.84,-9.51 -7.28,-13.15 -4.45,-3.64 -10.32,-5.46 -17.6,-5.46 -6.6,0 -12,1.69 -16.18,5.06 -4.18,3.37 -6.27,8.22 -6.27,14.56 0,4.31 1.32,7.85 3.95,10.61 2.62,2.77 5.96,4.96 10.01,6.58 4.04,1.62 9.57,3.37 16.58,5.26 9.3,2.56 16.89,5.12 22.75,7.68 5.87,2.56 10.86,6.51 14.97,11.83 4.11,5.33 6.17,12.44 6.17,21.34 0,7.15 -1.92,13.89 -5.77,20.22 -3.84,6.34 -9.44,11.43 -16.78,15.27 -7.35,3.85 -16.01,5.77 -25.99,5.77zm174.33 -141.98c14.97,0 28.08,2.87 39.33,8.6 11.26,5.73 19.96,13.95 26.1,24.67 6.13,10.72 9.2,23.23 9.2,37.52 0,14.29 -3.07,26.69 -9.2,37.21 -6.14,10.52 -14.84,18.57 -26.1,24.17 -11.25,5.59 -24.36,8.39 -39.33,8.39l-45.91 0 0 -140.56 45.91 0zm0 121.75c16.45,0 29.05,-4.45 37.82,-13.35 8.76,-8.89 13.14,-21.43 13.14,-37.61 0,-16.32 -4.38,-29.06 -13.14,-38.23 -8.77,-9.16 -21.37,-13.75 -37.82,-13.75l-22.85 0 0 102.94 22.85 0zm120.53 -103.14l0 41.26 48.54 0 0 18.8 -48.54 0 0 43.08 54.61 0 0 18.81 -77.66 0 0 -140.76 77.66 0 0 18.81 -54.61 0zm256.65 -18.61l-52.79 140.56 -26.69 0 -52.99 -140.56 24.67 0 41.66 116.9 41.87 -116.9 24.27 0zm42.26 0l0 140.56 -23.05 0 0 -140.56 23.05 0zm9.31 -30.13l-44.7 22.04 0 -16.98 44.7 -24.68 0 19.62zm66.94 30.13c14.97,0 28.08,2.87 39.33,8.6 11.26,5.73 19.96,13.95 26.1,24.67 6.13,10.72 9.2,23.23 9.2,37.52 0,14.29 -3.07,26.69 -9.2,37.21 -6.14,10.52 -14.84,18.57 -26.1,24.17 -11.25,5.59 -24.36,8.39 -39.33,8.39l-45.91 0 0 -140.56 45.91 0zm0 121.75c16.45,0 29.05,-4.45 37.82,-13.35 8.76,-8.89 13.14,-21.43 13.14,-37.61 0,-16.32 -4.38,-29.06 -13.14,-38.23 -8.77,-9.16 -21.37,-13.75 -37.82,-13.75l-22.85 0 0 102.94 22.85 0zm120.53 -103.14l0 41.26 48.54 0 0 18.8 -48.54 0 0 43.08 54.61 0 0 18.81 -77.66 0 0 -140.76 77.66 0 0 18.81 -54.61 0zm147.03 123.37c-13.07,0 -25.11,-3.07 -36.09,-9.2 -10.99,-6.14 -19.69,-14.7 -26.1,-25.69 -6.4,-10.99 -9.6,-23.36 -9.6,-37.11 0,-13.75 3.2,-26.09 9.6,-37.01 6.41,-10.92 15.11,-19.45 26.1,-25.58 10.98,-6.14 23.02,-9.21 36.09,-9.21 13.22,0 25.32,3.07 36.31,9.21 10.98,6.13 19.65,14.66 25.99,25.58 6.33,10.92 9.5,23.26 9.5,37.01 0,13.75 -3.17,26.12 -9.5,37.11 -6.34,10.99 -15.01,19.55 -25.99,25.69 -10.99,6.13 -23.09,9.2 -36.31,9.2zm0 -20.02c9.31,0 17.6,-2.13 24.88,-6.37 7.28,-4.25 12.98,-10.32 17.09,-18.21 4.11,-7.89 6.17,-17.02 6.17,-27.4 0,-10.38 -2.06,-19.48 -6.17,-27.3 -4.11,-7.82 -9.81,-13.82 -17.09,-18 -7.28,-4.18 -15.57,-6.27 -24.88,-6.27 -9.3,0 -17.59,2.09 -24.87,6.27 -7.28,4.18 -12.98,10.18 -17.09,18 -4.11,7.82 -6.17,16.92 -6.17,27.3 0,10.38 2.06,19.51 6.17,27.4 4.11,7.89 9.81,13.96 17.09,18.21 7.28,4.24 15.57,6.37 24.87,6.37z"/>
   </g>
  </g>
  <path class="fil7" d="M880.59 1554.78c-102.23,38.11 -199.43,42.25 -286.13,15.95 -88.35,-26.81 -165.72,-85.21 -226.33,-171.45l4.99 -3.5c59.82,85.12 136.09,142.72 223.11,169.12 85.42,25.92 181.29,21.81 282.24,-15.82l2.12 5.7z"/>
  <path class="fil7" d="M624.01 32.72c102.24,-38.11 199.43,-42.25 286.13,-15.94 88.35,26.8 165.72,85.2 226.33,171.44l-4.99 3.5c-59.81,-85.11 -136.09,-142.72 -223.11,-169.12 -85.42,-25.92 -181.29,-21.81 -282.23,15.82l-2.13 -5.7z"/>
 </g>
</svg>
